<?xml version="1.0" encoding="utf-8"?>
<!-- Generator: Adobe Illustrator 24.0.0, SVG Export Plug-In . SVG Version: 6.00 Build 0)  -->
<svg version="1.1" id="Layer_1" xmlns="http://www.w3.org/2000/svg" xmlns:xlink="http://www.w3.org/1999/xlink" x="0px" y="0px"
	 viewBox="0 0 600 350" style="enable-background:new 0 0 600 350;" xml:space="preserve">
<style type="text/css">
	.st0{fill:none;stroke:#0C1523;stroke-width:15;}
</style>
<title>australia Circuit</title>
<desc>Created with Sketch.</desc>
<g id="australia-Circuit">
	<path id="Circuit-Copy" class="st0" d="M201.9,76.3c6.6,4.4,13.3,8.9,19.9,13.3c1,0.7,2.6,1.6,2.4,2.8c-0.1,1.1,0.1,2.2-0.4,3.2
		c-1.9,3.6-5.9,6.8-5.6,10.8c0.1,1.9,0,3.8,0.4,5.6c0.2,1.1,1.2,4.3,0.7,3.3c0,0-0.1-0.2-0.1-0.1c1.9,5.3,5.2,10.3,8.4,15
		c7.6,11,15.6,22,24.3,32.2c3.7,4.4,8.1,8.4,12.7,11.8c5.1,3.8,10.9,6.7,16.5,9.7c2,1.1,4.3,1.9,6.5,2.5c6.5,1.8,13,3.9,19.7,4.9
		c5.4,0.8,10.9,0.7,16.3,0.6c7.7-0.1,15.4-0.4,23.1-1.3c3.4-0.4,6.8-0.8,10.1-1.1c3.2-0.4,6.4-0.7,9.6-1c1.4-0.2,2.8-1.1,3.7-2
		c0.8-1,2.1-3.8,2.9-4.9c2.5-3.5,5.1-6.4,7.7-9.9c1.4-1.8,3.5-4.5,5-6.2c0.8-0.9,2.1-1.7,3.3-2c2.5-0.6,5.3-0.3,7.9-0.5
		c17.5-1.7,33.7-3.2,51.3-3.7c6.1-0.2,12.4,0.4,18.3,1.9c5.9,1.5,11.5,4.1,17,6.9c19.2,9.8,38,20.3,56.9,30.7c2.7,1.5,6,3.9,8.1,5.9
		c0.5,0.5,0.2,1.8-0.1,2.5c-6,14.5-11.4,27.1-17.9,41.4c-2,4.4-3.5,9.3-6.4,12.9c-1.9,2.4-5.1,4.1-7.9,5.2c-2.3,0.8-5.1,1-7.5,0.4
		c-15.8-3.6-31.4-8.9-47.1-12.8c-1.1-0.3-2.6-0.3-3.5,0.3c-1.1,0.7-2.3,2.1-2.4,3.4c-0.3,3.1,0.7,6.5,1,9.7
		c0.4,5.1,0.8,10.2,0.8,15.3c0,1.3-0.4,2.7-1,3.7c-1.1,1.7-2.8,3.1-4.2,4.7c-0.9,1.1-1.6,2.5-2.8,3.2c-1.5,0.9-3.5,1.4-5.4,1.6
		c-5.6,0.6-11.3,0.8-16.9,0.9c-14.2,0.2-28.4,0-42.5-0.1c-32.6-0.2-65.2-0.5-97.8-0.7c-14.7-0.1-29.5,0-44.2-0.4
		c-1.3,0-3.2,0.5-5.3-1c-2.2-1.6-2.9-5.3-3.2-8.3c-0.3-3.5-1.8-6.6-4.3-9.2c-3-3-6.9-5.5-10.7-7.3c-3.1-1.4-6.8-1.8-10.3-2.3
		c-2.3-0.3-4.6,0-6.9,0.1c-5.9,0.3-11.7,1.1-17.6,1c-13.4-0.1-26.8-0.9-40.1-1.5c-2.6-0.1-5.2-0.3-7.7-0.8
		c-10.8-1.9-21.6-4-32.4-6.2c-3.6-0.7-7.2-1.6-10.8-2.6c-6.5-1.9-13.2-3.5-19.3-6.1c-1.6-0.7-3.1-2.2-3.8-3.6
		c-0.5-1.2-0.2-3,0.2-4.3c0.6-2,1.8-3.8,2.8-5.7c1.5-3,3.5-5.8,4.4-9c1-3.5,1.3-7.4,1.2-11.1c-0.1-3.4-0.7-6.9-2-10
		c-1.2-2.8-3.4-5.2-5.5-7.5c-3.7-4-7.8-7.5-11.8-11.2c-3-2.9-6.2-5.6-9.1-8.5c-0.9-0.9-2.1-1.9-2.6-3.1c-0.7-2.1-1.2-4.6-1-6.9
		c0.8-10.8,2.1-21.8,4.3-32.4c1.1-5.4,3.5-10.6,5.8-15.7c3.1-7.2,7.7-13.8,10.3-21.1c3-8.4,3.9-17.6,6.8-25.8
		c0.6-1.9,2.4-3.8,4.1-4.4c2.5-0.8,5.6-0.2,8.4-0.6c3.2-0.4,6.5-1.1,9.5-2.3c3.3-1.3,6.5-3,9.5-5c4.3-3,7.9-7.2,12.4-9.9
		c3.3-2,7.2-3.2,11-4.3c3.6-1.1,7.3-1.9,11-2.3c3.5-0.3,7.1-0.3,10.6,0.1c3.4,0.4,6.8,1.1,9.9,2.5c6.9,3.1,13.5,7,19.9,11.1
		C187.6,65.6,194.8,71,201.9,76.3"/>
</g>
</svg>
